#!OML:ASF E:\Mandelcareful walks\Project 1\Capture day 1\Session 1\Subject1.ASF
:FULLY-SPECIFIED
:DEGREES
574
root 3.39585 17.3223 -3.4138 -123.634 -73.2303 125.973
lowerback -1.13349 -1.13713 -0.954949
upperback 2.16572 -1.55008 1.37169
thorax 2.92249 -0.820677 1.88688
lowerneck -17.5677 -2.88999 -4.52836
upperneck 23.3872 -2.52004 -2.1904
head 10.4483 -1.95388 -0.401218
rclavicle -2.18663e-014 1.59028e-014
rhumerus -20.8297 -4.35175 -46.592
rradius 64.9897
rwrist -30.6981
rhand -7.76133 -28.1925
rfingers 7.12502
rthumb 18.1385 -57.3668
lclavicle -2.18663e-014 1.59028e-014
lhumerus -24.1449 -10.6812 52.2278
lradius 61.7776
lwrist 20.0977
lhand -19.4294 -14.7952
lfingers 7.12502
lthumb 6.89061 15.0726
rfemur -0.478752 -0.738544 11.2903
rtibia 6.87403
rfoot -11.5211 -11.9248
rtoes 19.3264
lfemur -35.6271 24.9342 -14.2572
ltibia 74.1674
lfoot -20.759 2.94255
ltoes -2.4934
575
root 3.44572 17.3089 -3.42328 -124.864 -73.7207 127.557
lowerback -0.667428 -1.0909 -0.710843
upperback 1.93533 -1.49889 1.62774
thorax 2.42119 -0.78865 2.02697
lowerneck -18.201 -3.37337 -4.46606
upperneck 23.8597 -3.04037 -2.75031
head 10.7405 -2.26893 -0.708262
rclavicle -4.77083e-015 -1.27222e-014
rhumerus -20.8959 -4.4848 -46.6456
rradius 64.9271
rwrist -30.7861
rhand -7.98851 -28.526
rfingers 7.12502
rthumb 17.9199 -57.7204
lclavicle -4.77083e-015 -1.27222e-014
lhumerus -24.2172 -10.7007 52.2524
lradius 61.7856
lwrist 19.7376
lhand -19.4511 -14.9353
lfingers 7.12502
lthumb 6.86974 14.9333
rfemur -0.90019 -0.753545 12.293
rtibia 6.80741
rfoot -11.6193 -11.5644
rtoes 21.368
lfemur -35.6978 24.3095 -13.43
ltibia 72.0683
lfoot -18.5948 4.90186
ltoes 0.513643
576
root 3.40502 17.3237 -3.41677 -124.056 -73.6626 126.722
lowerback -1.16036 -1.14226 -0.775482
upperback 1.98612 -1.56226 1.51701
thorax 2.75224 -0.821738 1.93667
lowerneck -17.471 -3.61372 -5.00031
upperneck 23.4127 -3.35316 -2.47593
head 10.4574 -2.41646 -0.54339
rclavicle 1.19271e-015 -1.90833e-014
rhumerus -21.0732 -4.61217 -46.6836
rradius 64.7643
rwrist -30.7572
rhand -8.01224 -28.3678
rfingers 7.12502
rthumb 17.8971 -57.5643
lclavicle 1.19271e-015 -1.90833e-014
lhumerus -24.4194 -10.8854 52.3115
lradius 61.8262
lwrist 19.2061
lhand -19.7916 -14.9742
lfingers 7.12502
lthumb 6.54096 14.9048
rfemur -0.715681 -1.00121 11.8474
rtibia 6.87054
rfoot -11.8414 -11.2866
rtoes 21.7476
lfemur -34.5141 23.2195 -13.4078
ltibia 69.754
lfoot -16.99 6.58046
ltoes 3.3794
577
root 3.38823 17.3318 -3.41199 -123.72 -73.6361 126.469
lowerback -1.35496 -1.19942 -0.870995
upperback 1.89546 -1.63187 1.48374
thorax 2.77305 -0.856527 1.95027
lowerneck -17.4637 -4.03298 -5.50914
upperneck 23.5155 -3.84686 -2.32085
head 10.5176 -2.67274 -0.478122
rclavicle -1.98785e-015 -6.36111e-015
rhumerus -21.2181 -4.48266 -46.7603
rradius 64.6137
rwrist -30.8232
rhand -8.18317 -28.2343
rfingers 7.12502
rthumb 17.7326 -57.4458
lclavicle -1.98785e-015 -6.36111e-015
lhumerus -24.7932 -11.0055 52.3897
lradius 61.7715
lwrist 18.36
lhand -20.3479 -15.1767
lfingers 7.12502
lthumb 6.00395 14.7182
rfemur -0.794088 -1.14104 11.6632
rtibia 6.96998
rfoot -11.8645 -11.1266
rtoes 21.8598
lfemur -33.5734 22.0946 -13.1835
ltibia 67.5194
lfoot -15.0477 8.10398
ltoes 6.72679
578
root 3.38917 17.3255 -3.40939 -123.501 -73.5162 126.367
lowerback -1.42599 -1.22806 -1.11373
upperback 1.86068 -1.66041 1.43852
thorax 2.78423 -0.874429 2.03766
lowerneck -17.3706 -4.30235 -5.80891
upperneck 23.3404 -4.15211 -2.30857
head 10.4506 -2.83286 -0.463108
rclavicle -2.90226e-014 -3.18055e-014
rhumerus -21.2147 -4.49796 -46.8893
rradius 64.5338
rwrist -30.83
rhand -8.37575 -28.5386
rfingers 7.12502
rthumb 17.5473 -57.7667
lclavicle -2.90226e-014 -3.18055e-014
lhumerus -24.8902 -10.9734 52.3473
lradius 61.5829
lwrist 17.4762
lhand -20.525 -15.487
lfingers 7.12502
lthumb 5.83296 14.4127
rfemur -0.68009 -1.19735 11.5367
rtibia 6.39665
rfoot -11.4977 -11.0984
rtoes 21.9779
lfemur -32.6957 20.9945 -12.9585
ltibia 65.2768
lfoot -13.0661 9.49298
ltoes 9.59127
